<?xml version="1.0" standalone="no"?><!DOCTYPE svg PUBLIC "-//W3C//DTD SVG 1.1//EN" "http://www.w3.org/Graphics/SVG/1.1/DTD/svg11.dtd"><svg t="1708507483136" class="icon" viewBox="0 0 1024 1024" version="1.1" xmlns="http://www.w3.org/2000/svg" p-id="14565" width="16" height="16" xmlns:xlink="http://www.w3.org/1999/xlink"><path d="M42.666667 0L338.346667 407.893333h359.893333L402.517333 0z" fill="#FF8787" p-id="14566"></path><path d="M240.341333 0l280.32 394.666667h-39.338666L173.738667 0h66.602666z" fill="#FFFFFF" fill-opacity=".503" p-id="14567"></path><path d="M632.533333 0L336.853333 407.893333h359.808L992.426667 0z" fill="#FA5252" p-id="14568"></path><path d="M858.965333 0l-307.584 394.666667H512L792.32 0h66.645333z" fill="#FFFFFF" fill-opacity=".503" p-id="14569"></path><path d="M896 640a384 384 0 1 1-768 0 384 384 0 0 1 768 0" fill="#FFCB61" p-id="14570"></path><path d="M810.666667 640a298.666667 298.666667 0 1 1-597.333334 0 298.666667 298.666667 0 0 1 597.333334 0" fill="#FFEB79" p-id="14571"></path><path d="M588.8 448v378.666667h-104.618667V578.56c-16.938667 12.842667-33.322667 23.253333-49.152 31.232a383.872 383.872 0 0 1-59.562666 22.826667V547.84c35.2-11.349333 62.549333-24.96 82.048-40.874667a166.826667 166.826667 0 0 0 45.696-58.922666H588.8z" fill="#FFB620" p-id="14572"></path></svg>